<svg id="visual" viewBox="0 0 960 540" width="960" height="540" xmlns="http://www.w3.org/2000/svg" xmlns:xlink="http://www.w3.org/1999/xlink" version="1.1"><rect x="0" y="0" width="960" height="540" fill="#fff"></rect><path d="M0 278L14.5 291C29 304 58 330 87.2 335.3C116.3 340.7 145.7 325.3 174.8 328.2C204 331 233 352 262 349.3C291 346.7 320 320.3 349 309C378 297.7 407 301.3 436.2 308.7C465.3 316 494.7 327 523.8 339.7C553 352.3 582 366.7 611 374.2C640 381.7 669 382.3 698 364.5C727 346.7 756 310.3 785.2 293C814.3 275.7 843.7 277.3 872.8 295.5C902 313.7 931 348.3 945.5 365.7L960 383L960 541L945.5 541C931 541 902 541 872.8 541C843.7 541 814.3 541 785.2 541C756 541 727 541 698 541C669 541 640 541 611 541C582 541 553 541 523.8 541C494.7 541 465.3 541 436.2 541C407 541 378 541 349 541C320 541 291 541 262 541C233 541 204 541 174.8 541C145.7 541 116.3 541 87.2 541C58 541 29 541 14.5 541L0 541Z" fill="#3d8ac3"></path><path d="M0 382L14.5 384.8C29 387.7 58 393.3 87.2 400C116.3 406.7 145.7 414.3 174.8 413.2C204 412 233 402 262 390.2C291 378.3 320 364.7 349 358.8C378 353 407 355 436.2 366.2C465.3 377.3 494.7 397.7 523.8 401.2C553 404.7 582 391.3 611 387.2C640 383 669 388 698 386C727 384 756 375 785.2 379.3C814.3 383.7 843.7 401.3 872.8 407.2C902 413 931 407 945.5 404L960 401L960 541L945.5 541C931 541 902 541 872.8 541C843.7 541 814.3 541 785.2 541C756 541 727 541 698 541C669 541 640 541 611 541C582 541 553 541 523.8 541C494.7 541 465.3 541 436.2 541C407 541 378 541 349 541C320 541 291 541 262 541C233 541 204 541 174.8 541C145.7 541 116.3 541 87.2 541C58 541 29 541 14.5 541L0 541Z" fill="#3779b7"></path><path d="M0 430L14.5 430.2C29 430.3 58 430.7 87.2 434.7C116.3 438.7 145.7 446.3 174.8 439.2C204 432 233 410 262 408.7C291 407.3 320 426.7 349 434.8C378 443 407 440 436.2 439.2C465.3 438.3 494.7 439.7 523.8 440.2C553 440.7 582 440.3 611 437.2C640 434 669 428 698 422C727 416 756 410 785.2 416.8C814.3 423.7 843.7 443.3 872.8 450.7C902 458 931 453 945.5 450.5L960 448L960 541L945.5 541C931 541 902 541 872.8 541C843.7 541 814.3 541 785.2 541C756 541 727 541 698 541C669 541 640 541 611 541C582 541 553 541 523.8 541C494.7 541 465.3 541 436.2 541C407 541 378 541 349 541C320 541 291 541 262 541C233 541 204 541 174.8 541C145.7 541 116.3 541 87.2 541C58 541 29 541 14.5 541L0 541Z" fill="#3567a9"></path><path d="M0 455L14.5 455.2C29 455.3 58 455.7 87.2 463.8C116.3 472 145.7 488 174.8 493.7C204 499.3 233 494.7 262 488.2C291 481.7 320 473.3 349 467.5C378 461.7 407 458.3 436.2 458.2C465.3 458 494.7 461 523.8 466.7C553 472.3 582 480.7 611 486.2C640 491.7 669 494.3 698 493.5C727 492.7 756 488.3 785.2 479.8C814.3 471.3 843.7 458.7 872.8 460.2C902 461.7 931 477.3 945.5 485.2L960 493L960 541L945.5 541C931 541 902 541 872.8 541C843.7 541 814.3 541 785.2 541C756 541 727 541 698 541C669 541 640 541 611 541C582 541 553 541 523.8 541C494.7 541 465.3 541 436.2 541C407 541 378 541 349 541C320 541 291 541 262 541C233 541 204 541 174.8 541C145.7 541 116.3 541 87.2 541C58 541 29 541 14.5 541L0 541Z" fill="#37559b"></path></svg>